<svg width="85" height="85" viewBox="0 0 85 85" fill="none" xmlns="http://www.w3.org/2000/svg">
<path d="M84.5005 42.2465C84.5005 51.7308 81.3774 60.483 76.111 67.5303C75.6342 68.1673 75.1384 68.7925 74.6236 69.399C74.3376 69.7457 74.044 70.0852 73.7424 70.421C73.4757 70.7184 73.2049 71.0119 72.9302 71.3017C65.2307 79.4321 54.3353 84.5006 42.2541 84.5006C30.1766 84.5006 19.2777 79.4321 11.5778 71.3056L11.5741 71.3017L11.5513 71.2789C10.9717 70.6686 10.411 70.0434 9.86968 69.399C9.3587 68.7925 8.86669 68.1673 8.38986 67.5303C3.12346 60.483 -3.05176e-05 51.7308 -3.05176e-05 42.2465C-3.05176e-05 18.9151 18.9155 2.26239e-06 42.2541 2.26239e-06C65.5854 2.26239e-06 84.5005 18.9151 84.5005 42.2465Z" fill="#FABEC3"/>
<path d="M30.6515 46.465C29.6197 45.4567 28.5344 44.4158 27.1593 43.9803C26.1893 43.6735 25.1457 43.6943 24.134 43.8028C23.9554 43.8222 23.7661 43.8483 23.6265 43.9621C23.4091 44.1397 23.3894 44.4663 23.4429 44.7417C23.6166 45.6339 24.3385 46.3156 25.0964 46.8163C25.8543 47.3174 26.6961 47.7115 27.3421 48.3507C27.9635 48.9656 28.3713 49.7926 28.4809 50.6598C28.5765 50.3373 28.6725 50.0149 28.7681 49.6925C29.0738 50.307 29.0988 51.0539 28.8356 51.6878C28.5723 52.3213 28.0246 52.8304 27.3736 53.047C28.5177 53.1896 29.7088 52.9199 30.6803 52.2985C30.6174 52.6206 30.4527 52.9222 30.2152 53.149C31.2315 53.2173 32.3111 52.9924 33.0698 52.3126C33.8285 51.6332 34.1631 50.436 33.6635 49.5487C33.4893 49.2392 33.2318 48.9865 32.978 48.7384C32.2026 47.9805 31.4269 47.2226 30.6515 46.465Z" fill="#B22C27"/>
<path d="M53.8493 46.465C54.8808 45.4567 55.9661 44.4158 57.3415 43.9803C58.3115 43.6735 59.3547 43.6943 60.3664 43.8028C60.5455 43.8222 60.7348 43.8483 60.8744 43.9621C61.0917 44.1397 61.1114 44.4663 61.0576 44.7417C60.8842 45.6339 60.1623 46.3156 59.4044 46.8163C58.6461 47.3174 57.8047 47.7115 57.1587 48.3507C56.5373 48.9656 56.1292 49.7926 56.0199 50.6598C55.9239 50.3373 55.8284 50.0149 55.7328 49.6925C55.427 50.307 55.4016 51.0539 55.6652 51.6878C55.9285 52.3213 56.4759 52.8304 57.1268 53.047C55.9827 53.1896 54.7916 52.9199 53.8205 52.2985C53.8835 52.6206 54.0481 52.9222 54.2852 53.149C53.2693 53.2173 52.1893 52.9924 51.431 52.3126C50.6723 51.6332 50.3374 50.436 50.837 49.5487C51.0111 49.2392 51.2687 48.9865 51.5228 48.7384C52.2982 47.9805 53.0736 47.2226 53.8493 46.465Z" fill="#B22C27"/>
<path d="M72.9409 71.2813L72.9295 71.3044L72.9234 71.3105C72.8483 71.3912 72.7728 71.4724 72.692 71.5476C72.5471 71.7042 72.4026 71.8547 72.2463 72.0111C72.1477 72.1093 72.0433 72.2136 71.939 72.3123C71.7884 72.4685 71.6321 72.6131 71.4815 72.7581C71.3776 72.8624 71.2733 72.9606 71.1633 73.0592C71.0127 73.2041 70.8564 73.3487 70.7001 73.4936C68.2158 75.7575 65.4595 77.7262 62.4889 79.3479C62.2689 79.4693 62.0431 79.585 61.8231 79.7007C61.0762 80.0945 60.3232 80.4594 59.5588 80.8011C58.9511 81.0732 58.3313 81.3338 57.7057 81.577C53.8205 83.1175 49.6512 84.0844 45.3024 84.397C44.2949 84.4664 43.2817 84.5013 42.2567 84.5013C41.1911 84.5013 40.1373 84.4608 39.0953 84.3795C34.3528 84.0325 29.8302 82.9031 25.6495 81.1138C25.4121 81.0095 25.1746 80.9112 24.9432 80.8011C20.8433 78.9598 17.0912 76.4756 13.8076 73.4875C13.6513 73.3487 13.4951 73.2041 13.3388 73.0535C13.2344 72.9606 13.1244 72.8563 13.0262 72.7581C12.8695 72.6131 12.7132 72.4629 12.5687 72.3123C12.4644 72.2136 12.3601 72.1093 12.2557 72.0111C12.1112 71.8547 11.9549 71.7042 11.81 71.5476C11.7288 71.4668 11.6537 71.3859 11.5782 71.3044H11.5725L11.5612 71.2813L15.817 65.2535C16.8769 63.7536 18.3939 62.6591 20.1426 62.1266L20.1832 62.1091C20.9821 61.8659 21.9377 61.588 22.9972 61.2986C24.862 60.7716 27.0622 60.1985 29.3784 59.6655C33.7215 58.6753 38.4815 57.8415 42.2453 57.8359H42.2624C46.0266 57.8415 50.7862 58.6753 55.1232 59.6655C56.7388 60.0361 58.2907 60.4297 59.7155 60.8064C60.3406 60.9742 60.9431 61.1422 61.5106 61.2986C62.3151 61.5242 63.0507 61.7329 63.7107 61.9298C63.9251 61.9877 64.1219 62.0512 64.3188 62.1091L64.3651 62.1266C65.3495 62.4274 66.2588 62.9023 67.052 63.5336C67.2257 63.6667 67.3937 63.8117 67.5557 63.9566C67.9726 64.3442 68.3489 64.7786 68.685 65.2535L72.9409 71.2813Z" fill="#F04825"/>
<path d="M45.3024 84.397C44.2949 84.4664 43.2817 84.5013 42.2567 84.5013C41.1911 84.5013 40.1373 84.4608 39.0952 84.3798L40.5891 74.3968H43.768L45.3024 84.397Z" fill="#731C18"/>
<path d="M44.2002 74.0854H40.392C40.0718 74.0854 39.7998 73.8597 39.7505 73.5533L39.1758 69.9798C39.1147 69.5982 39.4189 69.2534 39.8176 69.2534H44.7745C45.1732 69.2534 45.4774 69.5982 45.4163 69.9798L44.8416 73.5533C44.7923 73.8597 44.5203 74.0854 44.2002 74.0854Z" fill="#731C18"/>
<path d="M43.7045 73.6482H40.7088C40.4535 73.6482 40.2464 73.8688 40.2464 74.1413V74.4709C40.2464 74.7432 40.4535 74.964 40.7088 74.964H43.7045C43.9598 74.964 44.1669 74.7432 44.1669 74.4709V74.1413C44.1669 73.8688 43.9598 73.6482 43.7045 73.6482Z" fill="#621915"/>
<path d="M52.5087 60.832V47.0593H31.9916V60.8339L31.9912 60.8585C31.9912 66.5244 36.5843 71.1175 42.2501 71.1175C47.9164 71.1175 52.5094 66.5244 52.5094 60.8585L52.5087 60.832Z" fill="#F6859D"/>
<path d="M51.0024 47.0591H31.9918V50.7926C34.3258 54.9835 37.5332 56.8067 41.2359 57.4129C42.773 57.6655 44.8784 57.7747 46.8536 57.8149C49.1608 57.8616 51.0024 59.7537 51.0024 62.0616C51.0024 64.9674 49.7935 67.5914 47.8524 69.4563C50.6553 67.6255 52.5088 64.4565 52.5088 60.8603V57.7789V47.0591H51.0024Z" fill="#F3618E"/>
<path d="M32.3899 39.3601C32.3899 42.7916 29.7755 45.5729 26.5504 45.5729C23.3256 45.5729 20.7112 42.7916 20.7112 39.3601C20.7112 35.9289 23.3256 33.1472 26.5504 33.1472C29.7755 33.1472 32.3899 35.9289 32.3899 39.3601Z" fill="#F6859D"/>
<path d="M26.5505 43.6664C24.3819 43.6664 22.6179 41.7348 22.6179 39.3601C22.6179 36.9858 24.3819 35.0542 26.5505 35.0542C28.7192 35.0542 30.4832 36.9858 30.4832 39.3601C30.4832 41.7348 28.7192 43.6664 26.5505 43.6664Z" fill="#F3618E"/>
<path d="M63.7897 39.3601C63.7897 42.7916 61.1752 45.5729 57.9501 45.5729C54.7253 45.5729 52.1109 42.7916 52.1109 39.3601C52.1109 35.9289 54.7253 33.1472 57.9501 33.1472C61.1752 33.1472 63.7897 35.9289 63.7897 39.3601Z" fill="#F6859D"/>
<path d="M57.9502 43.6664C55.7815 43.6664 54.0176 41.7348 54.0176 39.3601C54.0176 36.9858 55.7815 35.0542 57.9502 35.0542C60.1189 35.0542 61.8829 36.9858 61.8829 39.3601C61.8829 41.7348 60.1189 43.6664 57.9502 43.6664Z" fill="#F3618E"/>
<path d="M48.7618 14.6058C53.8628 14.6058 57.998 18.7414 57.998 23.8424V37.3997H57.9753C57.7883 45.0878 55.2675 48.3596 51.4733 51.7422C48.8802 54.0569 45.6918 55.8303 42.2444 55.8303C38.7779 55.8303 35.5744 54.0417 32.9774 51.708C29.206 48.3175 26.7005 45.0608 26.5134 37.3997C26.5059 37.0905 26.5021 36.7741 26.5021 36.4536V23.8424C26.5021 18.7414 30.6373 14.6058 35.7387 14.6058H48.7618Z" fill="#F89DAD"/>
<path d="M37.0769 31.0335C36.0318 30.9095 34.9541 31.0001 33.9572 31.2797C33.4549 31.4204 32.9678 31.6139 32.4876 31.8165C32.0627 31.9955 31.1557 32.5118 31.1557 33.0945C31.1557 33.4014 31.9285 32.8684 32.1155 32.7899C32.9254 32.45 33.7758 32.1822 34.6525 32.0926C35.5785 31.9982 36.4081 32.1624 37.2715 32.4879C37.7673 32.6745 38.2377 33.0053 38.7524 33.1267C39.0422 33.1969 39.4333 33.1267 39.6416 32.9003C39.7823 32.7474 39.7819 32.5486 39.763 32.3513C39.7391 32.0998 39.6264 31.8616 39.4785 31.6602C39.4166 31.576 39.3487 31.4971 39.279 31.4193C39.2733 31.5122 39.2793 31.6056 39.2968 31.697C39.2797 31.6067 39.1037 31.5794 39.0373 31.5509C38.4178 31.2839 37.754 31.1136 37.0769 31.0335Z" fill="#B22C27"/>
<path d="M47.1679 31.0335C48.213 30.9095 49.2907 31.0001 50.288 31.2797C50.7899 31.4204 51.2774 31.6139 51.7572 31.8165C52.1821 31.9955 53.0891 32.5118 53.0891 33.0945C53.0891 33.4014 52.3164 32.8684 52.1294 32.7899C51.3195 32.45 50.469 32.1822 49.5923 32.0926C48.6664 31.9982 47.8371 32.1624 46.9734 32.4879C46.4779 32.6745 46.0072 33.0053 45.4924 33.1267C45.2026 33.1969 44.8115 33.1267 44.6032 32.9003C44.4629 32.7474 44.4629 32.5486 44.4819 32.3513C44.5057 32.0998 44.6184 31.8616 44.7664 31.6602C44.8282 31.576 44.8965 31.4971 44.9659 31.4193C44.9716 31.5122 44.9655 31.6056 44.948 31.697C44.9655 31.6067 45.1415 31.5794 45.2075 31.5509C45.827 31.2839 46.4908 31.1136 47.1679 31.0335Z" fill="#B22C27"/>
<path d="M48.3257 40.255C48.3257 40.255 48.3386 40.2299 48.3637 40.1825C48.3906 40.137 48.4198 40.0638 48.4767 39.9818C48.5833 39.8123 48.7457 39.5737 48.993 39.3282C49.2373 39.0817 49.5662 38.8286 49.9653 38.6393C50.3605 38.4417 50.8264 38.3237 51.2968 38.285C51.4155 38.2816 51.5312 38.2744 51.6522 38.2801C51.7611 38.282 51.8798 38.2919 51.9993 38.3044C52.2315 38.3302 52.4538 38.3844 52.6647 38.4485C53.0854 38.5836 53.4484 38.7854 53.7234 38.9978C54.0026 39.2061 54.1926 39.4261 54.3205 39.5782C54.3865 39.6529 54.4278 39.7205 54.4589 39.7633C54.4893 39.8073 54.5056 39.8305 54.5056 39.8305C54.5056 39.8305 54.4191 39.7576 54.2681 39.6306C54.1187 39.5035 53.8895 39.3426 53.6031 39.181C53.3164 39.0198 52.9643 38.8707 52.5732 38.7717C52.3775 38.722 52.1704 38.694 51.9621 38.6704C51.8608 38.6625 51.7569 38.6549 51.6416 38.6549C51.5384 38.6519 51.4288 38.6613 51.3229 38.6651C51.1097 38.6811 50.8966 38.7084 50.6921 38.7588C50.488 38.8108 50.2866 38.8654 50.1011 38.9455C49.7255 39.0949 49.3989 39.2948 49.136 39.4929C48.8754 39.6928 48.6656 39.8802 48.5363 40.0255C48.402 40.1715 48.3257 40.255 48.3257 40.255Z" fill="#F3618E"/>
<path d="M36.2674 40.255C36.2674 40.255 36.1912 40.1715 36.0573 40.0255C35.9275 39.8802 35.7178 39.6928 35.4572 39.4929C35.1943 39.2948 34.8677 39.0949 34.4921 38.9455C34.3066 38.8654 34.1052 38.8108 33.9011 38.7588C33.6966 38.7084 33.4835 38.6811 33.2703 38.6651C33.1644 38.6613 33.0548 38.6519 32.9516 38.6549C32.8363 38.6549 32.7324 38.6625 32.6311 38.6704C32.4228 38.694 32.2157 38.722 32.0203 38.7717C31.6289 38.8707 31.2768 39.0198 30.99 39.181C30.7036 39.3426 30.4745 39.5035 30.3251 39.6306C30.1741 39.7576 30.0876 39.8305 30.0876 39.8305C30.0876 39.8305 30.1039 39.8073 30.1343 39.7633C30.1654 39.7205 30.2067 39.6529 30.2727 39.5782C30.4006 39.4261 30.5906 39.2061 30.8698 38.9978C31.1452 38.7854 31.5078 38.5836 31.9285 38.4485C32.1395 38.3844 32.3617 38.3302 32.5939 38.3044C32.7134 38.2919 32.8321 38.282 32.941 38.2801C33.062 38.2744 33.1777 38.2816 33.2964 38.285C33.7668 38.3237 34.2327 38.4417 34.6279 38.6393C35.027 38.8286 35.3559 39.0817 35.6002 39.3282C35.8475 39.5737 36.0099 39.8123 36.1165 39.9818C36.1737 40.0638 36.2026 40.137 36.2295 40.1825C36.2542 40.2299 36.2674 40.255 36.2674 40.255Z" fill="#F3618E"/>
<path d="M23.2144 33.0131C23.604 31.8022 23.777 30.5303 23.862 29.2648C23.9401 28.1055 24.228 27.0631 24.1988 25.8894C24.1389 23.4612 24.1302 21.3066 24.8475 18.9717C25.6631 16.3175 27.5287 14.0578 29.8119 12.5161C31.0103 11.707 32.3403 11.083 33.7442 10.7283C34.5165 10.5329 35.3105 10.418 36.1075 10.4009C36.5195 10.3922 38.2204 10.2924 38.4848 10.6486C38.2041 10.2704 37.8092 9.96277 37.398 9.72948C38.6696 9.91118 39.9054 10.3383 41.0177 10.9802C41.3067 11.1471 41.6034 11.3466 41.7327 11.6543C42.6193 10.9604 43.5908 10.3554 44.6616 10.0079C45.7325 9.66005 46.9123 9.58304 47.9828 9.93128C46.638 9.81634 45.2538 10.2697 44.2379 11.1585C44.9287 10.7488 45.6805 10.4214 46.4654 10.2454C51.2815 9.16501 55.8795 12.7638 58.3961 16.5899C59.2147 17.8341 59.8671 19.1895 60.3113 20.6116C60.6581 21.7223 60.7522 22.8949 60.7176 24.0534C60.6744 25.5188 60.3155 26.9747 60.3284 28.4538C60.339 29.7082 60.49 30.9616 60.7795 32.1827C61.0295 33.2365 61.2866 34.4883 62.238 35.1495C60.96 34.2611 59.4817 33.6617 57.9458 33.4098C57.9162 32.4054 57.7208 31.5006 57.8555 30.5071C57.9632 29.7135 57.8824 28.8684 57.8824 28.0668C57.8824 22.2204 53.2055 17.4813 47.4361 17.4813H37.0733C33.8959 17.4813 30.84 18.9846 28.8708 21.511C27.5837 23.1627 26.9073 25.1766 26.6885 27.2539C26.5894 28.1916 26.6369 29.1366 26.7021 30.0751C26.7317 30.4999 26.7859 30.9259 26.8163 31.3485C26.8705 32.0985 26.5826 32.9816 26.5276 33.744C26.4916 34.2455 26.4802 34.8149 26.0284 35.1377C25.547 35.4811 24.8623 35.288 24.321 35.2956C23.9841 35.3005 22.2194 35.3092 22.0464 35.6013C22.5263 34.791 22.9227 33.9197 23.2144 33.0131Z" fill="#B22C27"/>
<path d="M59.296 37.0764C59.0904 39.0615 58.2388 40.9237 57.3636 42.721C57.3989 41.5519 57.2874 40.3832 57.0408 39.2436C56.8394 38.2964 56.4938 37.2392 56.0223 36.3936C55.5405 35.5299 54.3016 35.0477 53.4302 34.7215C52.381 34.3289 51.2763 34.0121 50.383 33.3365C51.3503 34.1434 52.4341 34.8106 53.5903 35.311C52.7493 35.2048 51.9277 34.9688 51.1375 34.6619C49.9892 34.2162 48.8907 33.6074 47.9597 32.7956C47.5383 32.428 47.0106 31.9697 46.7443 31.4698C46.4887 30.9899 46.3771 30.3576 46.28 29.8227C46.1184 28.9324 46.0092 28.0329 45.9534 27.1297C45.892 26.1283 46.2193 25.076 45.8089 24.1212C45.6473 23.746 45.4037 23.3769 45.0752 23.1269C44.2854 22.526 43.0128 23.0579 42.4123 23.6618C42.4551 23.6182 41.6399 23.1501 41.5633 23.1178C40.824 22.8094 39.8631 22.7282 39.2372 23.3185C38.5301 23.985 38.5623 25.1446 38.5631 26.0376C38.5631 26.8039 38.4565 27.5683 38.3552 28.3258C38.1947 29.526 38.1481 30.7445 37.7593 31.9072C37.3788 33.0448 36.6747 34.1206 35.6258 34.7029C35.9255 34.1062 36.1907 33.492 36.4183 32.8646C36.0511 33.0922 35.7738 33.3965 35.3963 33.6051C34.3274 34.1866 33.1408 34.4981 31.9546 34.7799C31.0028 35.003 30.0044 35.226 29.2233 35.8136C28.16 36.6064 27.6547 37.9459 27.379 39.2436C27.1324 40.3832 27.0205 41.5519 27.0558 42.721C26.1806 40.9237 25.329 39.0615 25.1234 37.0764C25.0472 36.3599 25.0589 35.6372 25.0707 34.915C25.1151 32.1708 24.9588 29.347 25.2926 26.6214C25.6446 23.7483 26.6271 20.2891 28.8474 18.3044C32.4007 15.1384 37.6811 14.5686 42.2097 14.5686C46.7383 14.5686 52.0187 15.1384 55.5724 18.3044C58.6158 21.0159 59.2228 25.609 59.2728 29.4585C59.296 31.279 59.3256 33.0941 59.3491 34.915C59.3609 35.6372 59.3726 36.3599 59.296 37.0764Z" fill="#B22C27"/>
<path d="M44.087 42.4901L43.4486 43.2754C42.7867 44.089 41.7139 44.089 41.0523 43.2754L40.4139 42.4901C40.2291 42.2629 40.36 41.8748 40.621 41.8748H43.8799C44.1409 41.8748 44.2718 42.2629 44.087 42.4901Z" fill="#F46D82"/>
<path d="M50.5289 36.6289C50.5289 38.0078 49.7463 39.1257 48.7809 39.1257C47.8154 39.1257 47.0332 38.0078 47.0332 36.6289C47.0332 35.2504 47.8154 34.1324 48.7809 34.1324C49.7463 34.1324 50.5289 35.2504 50.5289 36.6289Z" fill="#B22C27"/>
<path d="M48.7812 38.3629C48.3161 38.3629 47.7961 37.6213 47.7961 36.6293C47.7961 35.637 48.3161 34.8954 48.7812 34.8954C49.2466 34.8954 49.7663 35.637 49.7663 36.6293C49.7663 37.6213 49.2466 38.3629 48.7812 38.3629Z" fill="#7E181A"/>
<path d="M33.979 36.6289C33.979 38.0078 34.7616 39.1257 35.7266 39.1257C36.692 39.1257 37.4746 38.0078 37.4746 36.6289C37.4746 35.2504 36.692 34.1324 35.7266 34.1324C34.7616 34.1324 33.979 35.2504 33.979 36.6289Z" fill="#B22C27"/>
<path d="M35.7265 38.3629C35.2615 38.3629 34.7418 37.6213 34.7418 36.6293C34.7418 35.637 35.2615 34.8954 35.7265 34.8954C36.192 34.8954 36.7117 35.637 36.7117 36.6293C36.7117 37.6213 36.192 38.3629 35.7265 38.3629Z" fill="#7E181A"/>
<path d="M41.8795 48.5109C38.847 48.5109 36.7979 47.1195 36.766 47.0975C36.5938 46.9772 36.5513 46.7398 36.6715 46.5672C36.791 46.3946 37.0281 46.3509 37.2018 46.4712C37.3877 46.5998 41.8089 49.5765 47.312 46.0702C47.4892 45.9576 47.7248 46.0092 47.839 46.1871C47.9516 46.365 47.8997 46.6005 47.7217 46.714C45.5876 48.0735 43.579 48.5109 41.8795 48.5109Z" fill="#F3618E"/>
<path d="M31.9914 59.0991L42.2503 71.1175C42.2503 71.1175 35.3327 72.2521 33.1131 79.6981C33.1131 79.6981 31.2309 65.7887 26.3685 60.3935L28.1438 55.2826C28.2432 54.9977 28.4575 54.7671 28.7348 54.6472L31.9914 53.2425V59.0991Z" fill="#F35F42"/>
<path d="M31.9913 59.0991L29.4911 56.1008C29.273 55.8395 29.3621 55.4422 29.6709 55.2989L31.9913 54.2197V59.0991Z" fill="#B13B50"/>
<path d="M52.5115 59.0991L42.2522 71.1175C42.2522 71.1175 49.1702 72.2521 51.3898 79.6981C51.3898 79.6981 53.5148 63.0565 58.1345 60.3935L56.3588 55.2826C56.2598 54.9977 56.0454 54.7671 55.7681 54.6472L52.5115 53.2425V59.0991Z" fill="#F35F42"/>
<path d="M52.5116 59.0991V54.2197L54.832 55.2989C55.1408 55.4422 55.2296 55.8395 55.0115 56.1008L52.5116 59.0991Z" fill="#B13B50"/>
<path d="M57.7754 76.1512L57.8505 76.1455C57.8448 76.3537 57.8391 76.5624 57.8273 76.7766L57.7754 76.1512Z" fill="#731C18"/>
<path d="M63.647 61.9878C62.7149 64.1479 62.1645 70.2219 61.9445 75.8559L62.1182 77.8363C62.1588 78.2764 62.0545 78.6993 61.8405 79.0526C61.5162 79.6082 60.9369 79.9963 60.2481 80.054L60.1726 80.0658C59.0437 80.1583 58.0475 79.3245 57.955 78.1956L57.8275 76.7768C57.8392 76.5626 57.8449 76.3539 57.8506 76.1457C58.2038 66.4925 59.0668 62.5782 59.7155 60.8065C59.7788 60.6329 59.9586 60.5403 60.1324 60.5862C60.9199 60.8065 62.57 61.2641 63.427 61.5129C63.6299 61.5706 63.7338 61.791 63.647 61.9878Z" fill="#731C18"/>
<path d="M60.2483 80.0539L60.1728 80.0657C59.0439 80.1582 58.0477 79.3244 57.9551 78.1955L57.8277 76.7767C57.8045 77.5874 57.7814 78.4387 57.7583 79.3363L57.7063 81.577C58.3315 81.3339 58.9513 81.0732 59.559 80.8012C60.3234 80.4594 61.0764 80.0945 61.8233 79.7011L61.829 79.4345C61.8347 79.3074 61.8347 79.1799 61.8407 79.0525C61.5164 79.6082 60.9371 79.9962 60.2483 80.0539Z" fill="#621915"/>
<path d="M61.9446 75.3928C61.9389 75.5318 61.8175 75.6417 61.6783 75.6299L60.3639 75.5491L60.3988 75.0686V75.0279C60.3988 74.8079 60.2308 74.6224 59.9994 74.5993C59.7619 74.5822 59.5533 74.7617 59.5358 74.9988L59.4952 75.4968L58.2332 75.416C58.0939 75.4042 57.9839 75.2828 57.9957 75.1497L58.2851 70.5459C58.2908 70.4068 58.4126 70.2972 58.5514 70.3086L61.997 70.5286C62.1358 70.5343 62.2458 70.656 62.2345 70.7949L61.9446 75.3928ZM62.657 69.8105L57.9839 69.521C57.77 69.5037 57.5845 69.6717 57.5727 69.886L57.2025 75.7111C57.1907 75.9255 57.3531 76.1106 57.5727 76.128L62.2401 76.4174C62.4602 76.4349 62.6453 76.2672 62.657 76.0529L63.022 70.2278C63.039 70.0134 62.8714 69.8279 62.657 69.8105Z" fill="#F35F42"/>
<path d="M20.8276 61.9878C21.76 64.1479 22.31 70.2219 22.5301 75.8559L22.3563 77.8363C22.3157 78.2764 22.42 78.6993 22.6344 79.0526C22.9583 79.6082 23.5376 79.9963 24.2265 80.054L24.302 80.0658C25.4309 80.1583 26.427 79.3245 26.5196 78.1956L26.6471 76.7768C26.6353 76.5626 26.6296 76.3539 26.6239 76.1457C26.2708 66.4925 25.4077 62.5782 24.7594 60.8065C24.6957 60.6329 24.5163 60.5403 24.3426 60.5862C23.555 60.8065 21.9045 61.2641 21.0476 61.5129C20.845 61.5706 20.7407 61.791 20.8276 61.9878Z" fill="#731C18"/>
<path d="M22.6339 79.0525C22.6396 79.1799 22.6396 79.3074 22.6453 79.4345L22.651 79.7011C23.3983 80.0945 24.1509 80.4594 24.9153 80.8012C25.5234 81.0732 26.1428 81.3339 26.7684 81.577L26.716 79.3363C26.6929 78.4387 26.6697 77.5874 26.6466 76.7767L26.5191 78.1955C26.4266 79.3244 25.4304 80.1582 24.3015 80.0657L24.226 80.0539C23.5371 79.9962 22.9579 79.6082 22.6339 79.0525Z" fill="#621915"/>
<path d="M22.2404 70.7949C22.2286 70.656 22.3386 70.5343 22.4774 70.5286L25.923 70.3086C26.0618 70.2972 26.1836 70.4068 26.1893 70.5459L26.4787 75.1497C26.4905 75.2828 26.3805 75.4042 26.2413 75.416L24.9792 75.4968L24.9386 74.9988C24.9212 74.7617 24.7129 74.5822 24.4754 74.5993C24.2437 74.6224 24.0756 74.8079 24.0756 75.0279V75.0686L24.1105 75.5491L22.7961 75.6299C22.6572 75.6417 22.5355 75.5318 22.5298 75.3928L22.2404 70.7949ZM21.4525 70.2278L21.8174 76.0529C21.8292 76.2672 22.0143 76.4349 22.2343 76.4174L26.9017 76.128C27.1217 76.1106 27.2837 75.9255 27.2723 75.7111L26.9017 69.886C26.8899 69.6717 26.7048 69.5037 26.4905 69.521L21.8174 69.8105C21.6031 69.8279 21.4354 70.0134 21.4525 70.2278Z" fill="#F35F42"/>
<path d="M57.8543 76.1458L61.9413 75.7923L57.8543 76.1458Z" fill="#731C18"/>
</svg>
