<svg width="85" height="85" viewBox="0 0 85 85" fill="none" xmlns="http://www.w3.org/2000/svg">
<path d="M84.501 42.2469C84.501 51.7312 81.3778 60.4831 76.1114 67.5306C75.6345 68.1675 75.1387 68.793 74.624 69.3996C74.3379 69.7463 74.0443 70.0859 73.7431 70.4216C73.4761 70.719 73.2052 71.0126 72.9306 71.3024C65.231 79.4329 54.3358 84.5013 42.2541 84.5013C30.1765 84.5013 19.2776 79.4329 11.578 71.3062L11.5742 71.3024L11.5511 71.2797C10.9714 70.6693 10.4107 70.0437 9.86942 69.3996C9.35844 68.793 8.86643 68.1675 8.3896 67.5306C3.12315 60.4831 0 51.7312 0 42.2469C0 18.9153 18.9153 -7.62939e-06 42.2541 -7.62939e-06C65.5857 -7.62939e-06 84.501 18.9153 84.501 42.2469Z" fill="#CAFCD2"/>
<path d="M72.9409 71.2808L72.9291 71.3039L72.9234 71.3096C72.8483 71.3908 72.7728 71.472 72.6916 71.5471C72.5471 71.7034 72.4022 71.854 72.2459 72.0103C72.1473 72.1089 72.0433 72.2128 71.939 72.3115C71.7884 72.4678 71.6321 72.6127 71.4815 72.7572C71.3772 72.8615 71.2732 72.9601 71.1629 73.0584C71.0126 73.2033 70.856 73.3478 70.6997 73.4927C68.2157 75.7571 65.4594 77.7259 62.4888 79.3472C61.5332 79.8684 60.5545 80.3547 59.5587 80.8004C54.2775 83.1805 48.4173 84.5006 42.2564 84.5006C36.3614 84.5006 30.7505 83.2962 25.6487 81.113C25.4112 81.0091 25.1741 80.9105 24.9423 80.8004C20.8428 78.9591 17.0903 76.4748 13.807 73.4871C13.6507 73.3478 13.4945 73.2033 13.3378 73.0527C13.2339 72.9601 13.1235 72.8558 13.0252 72.7572C12.8689 72.6127 12.7126 72.4621 12.5677 72.3115C12.4638 72.2128 12.3591 72.1089 12.2551 72.0103C12.1102 71.854 11.9539 71.7034 11.809 71.5471C11.7282 71.4659 11.6527 71.3851 11.5776 71.3039H11.5719L11.5602 71.2808L15.8164 65.2526C16.8759 63.7531 18.3933 62.6587 20.1417 62.1257L20.1823 62.1086C20.9816 61.8651 21.9368 61.5874 22.9967 61.2976C24.8611 60.7707 27.0617 60.1975 29.378 59.6649C33.7208 58.6748 38.4808 57.8406 42.2446 57.8349H42.2621C46.0259 57.8406 50.786 58.6748 55.123 59.6649C57.445 60.1975 59.6456 60.7767 61.51 61.2976C62.5696 61.5931 63.5137 61.8651 64.3183 62.1086L64.3646 62.1257C65.349 62.4269 66.2583 62.9018 67.0519 63.5331C67.2253 63.6662 67.3933 63.8107 67.5557 63.9556C67.9722 64.3437 68.3489 64.7777 68.6846 65.2526L72.9409 71.2808Z" fill="#F35F42"/>
<path d="M59.8193 61.4019V61.4193C59.8193 71.1014 51.938 78.9879 42.2507 78.9879C32.563 78.9879 24.6817 71.1014 24.6817 61.4193V61.4019C24.6817 60.4581 25.3649 59.6531 26.2856 59.4505L26.3379 59.4388C31.7868 58.2518 37.5775 57.3137 42.2389 57.308H42.2677C46.906 57.3137 52.6679 58.2461 58.0936 59.4274C58.1342 59.4331 58.1748 59.4388 58.215 59.4505C59.1357 59.6531 59.8193 60.4581 59.8193 61.4019Z" fill="#F04825"/>
<path d="M58.0937 59.4274C57.9256 68.9994 50.8668 76.7297 42.2158 76.7297C33.5705 76.7297 26.5117 69.0051 26.338 59.4388C31.7869 58.2518 37.5776 57.3137 42.2389 57.308H42.2678C46.906 57.3137 52.6679 58.2461 58.0937 59.4274Z" fill="#D9DCCC"/>
<path d="M52.509 60.8321V47.0596H31.9921V60.834L31.9913 60.859C31.9913 66.5249 36.5844 71.118 42.2507 71.118C47.9166 71.118 52.5097 66.5249 52.5097 60.859L52.509 60.8321Z" fill="#F6859D"/>
<path d="M51.0026 47.0596H31.9921V50.7932C34.3258 54.9842 37.5332 56.8069 41.2359 57.4135C42.773 57.6661 44.8784 57.7754 46.8537 57.8156C49.1608 57.8622 51.0026 59.7544 51.0026 62.062C51.0026 64.9681 49.7936 67.5917 47.8525 69.4565C50.6555 67.6262 52.5089 64.4572 52.5089 60.861V57.7795V47.0596H51.0026Z" fill="#F3618E"/>
<path d="M32.39 39.3605C32.39 42.7916 29.7756 45.5734 26.5508 45.5734C23.3256 45.5734 20.7111 42.7916 20.7111 39.3605C20.7111 35.9293 23.3256 33.1476 26.5508 33.1476C29.7756 33.1476 32.39 35.9293 32.39 39.3605Z" fill="#F6859D"/>
<path d="M26.5504 43.6667C24.382 43.6667 22.6177 41.7347 22.6177 39.3604C22.6177 36.9861 24.382 35.0545 26.5504 35.0545C28.7191 35.0545 30.483 36.9861 30.483 39.3604C30.483 41.7347 28.7191 43.6667 26.5504 43.6667Z" fill="#F3618E"/>
<path d="M63.7899 39.3605C63.7899 42.7916 61.1755 45.5734 57.9503 45.5734C54.7255 45.5734 52.111 42.7916 52.111 39.3605C52.111 35.9293 54.7255 33.1476 57.9503 33.1476C61.1755 33.1476 63.7899 35.9293 63.7899 39.3605Z" fill="#F6859D"/>
<path d="M57.9502 43.6667C55.7815 43.6667 54.0176 41.7347 54.0176 39.3604C54.0176 36.9861 55.7815 35.0545 57.9502 35.0545C60.119 35.0545 61.8829 36.9861 61.8829 39.3604C61.8829 41.7347 60.119 43.6667 57.9502 43.6667Z" fill="#F3618E"/>
<path d="M48.7622 14.6059C53.8632 14.6059 57.9988 18.7411 57.9988 23.8422V37.3996H57.9757C57.7891 45.0878 55.2683 48.36 51.4737 51.7426C48.8805 54.0574 45.6921 55.8308 42.2446 55.8308C38.7782 55.8308 35.575 54.0422 32.9776 51.7081C29.2062 48.3179 26.7006 45.0612 26.5136 37.3996C26.506 37.0908 26.5022 36.7745 26.5022 36.4539V23.8422C26.5022 18.7411 30.6378 14.6059 35.7389 14.6059H48.7622Z" fill="#F89DAD"/>
<path d="M48.3259 40.2549C48.3259 40.2549 48.3392 40.2299 48.3639 40.1829C48.3908 40.137 48.42 40.0641 48.4769 39.9822C48.5839 39.8126 48.7462 39.574 48.9932 39.3286C49.2375 39.082 49.5664 38.829 49.9655 38.6397C50.3607 38.4421 50.8266 38.3241 51.2973 38.2854C51.4157 38.282 51.5314 38.2748 51.6524 38.2805C51.7613 38.2823 51.88 38.2922 51.9995 38.3044C52.232 38.3305 52.454 38.3848 52.6652 38.4489C53.0856 38.5836 53.4486 38.7854 53.7236 38.9982C54.0032 39.2064 54.1929 39.4265 54.3207 39.5782C54.3867 39.6533 54.4281 39.7208 54.4592 39.7637C54.4895 39.8073 54.5058 39.8308 54.5058 39.8308C54.5058 39.8308 54.4193 39.758 54.2684 39.6305C54.1193 39.5038 53.8898 39.343 53.6034 39.1814C53.3166 39.0198 52.9646 38.8707 52.5735 38.7717C52.3777 38.7224 52.1706 38.6939 51.9623 38.6708C51.861 38.6625 51.7571 38.6549 51.6418 38.6552C51.539 38.6518 51.4293 38.6617 51.3231 38.6655C51.1099 38.6814 50.8967 38.7084 50.6923 38.7592C50.4882 38.8112 50.2868 38.8658 50.1013 38.9458C49.7257 39.0949 49.3995 39.2952 49.1362 39.4932C48.8756 39.6928 48.6658 39.8805 48.5365 40.0258C48.4025 40.1719 48.3259 40.2549 48.3259 40.2549Z" fill="#F3618E"/>
<path d="M36.2673 40.2549C36.2673 40.2549 36.191 40.1719 36.0571 40.0258C35.9274 39.8805 35.7176 39.6928 35.457 39.4932C35.1941 39.2952 34.8675 39.0949 34.492 38.9458C34.3065 38.8658 34.105 38.8112 33.9013 38.7592C33.6965 38.7084 33.4833 38.6814 33.2701 38.6655C33.1643 38.6617 33.0546 38.6518 32.9514 38.6552C32.8361 38.6549 32.7322 38.6625 32.6309 38.6708C32.423 38.6939 32.2155 38.7224 32.0201 38.7717C31.6287 38.8707 31.2766 39.0198 30.9899 39.1814C30.7034 39.343 30.4743 39.5038 30.3249 39.6305C30.1739 39.758 30.0878 39.8308 30.0878 39.8308C30.0878 39.8308 30.1037 39.8073 30.134 39.7637C30.1652 39.7208 30.2069 39.6533 30.2725 39.5782C30.4003 39.4265 30.5904 39.2064 30.87 38.9982C31.145 38.7854 31.5077 38.5836 31.9284 38.4489C32.1393 38.3848 32.3616 38.3305 32.5937 38.3044C32.7132 38.2922 32.8319 38.2823 32.9408 38.2805C33.0622 38.2748 33.1775 38.282 33.2963 38.2854C33.7666 38.3241 34.2325 38.4421 34.6278 38.6397C35.0268 38.829 35.3557 39.082 35.6 39.3286C35.8474 39.574 36.0097 39.8126 36.1163 39.9822C36.1736 40.0641 36.2024 40.137 36.2294 40.1829C36.2544 40.2299 36.2673 40.2549 36.2673 40.2549Z" fill="#F3618E"/>
<path d="M24.6589 33.5216C24.596 32.096 24.6017 30.6583 24.4761 29.2437C24.3873 28.2475 23.9617 27.3952 23.7159 26.4438C23.483 25.5413 23.4162 24.5975 23.5031 23.67C23.6795 21.7869 24.4955 19.9486 25.8691 18.6338C24.1601 18.0633 22.6556 16.901 21.6724 15.3912C23.9883 15.9071 26.49 15.5368 28.5571 14.3719C29.0468 14.0961 29.5111 13.7782 29.9683 13.4512C31.7701 12.161 33.467 10.7165 35.3698 9.5796C38.2615 7.85168 41.2523 7.51484 44.5514 7.81907C47.4511 8.08689 50.3444 9.10732 52.213 11.4467C52.8135 12.1978 53.0241 13.463 52.9129 14.4007C53.0484 13.2581 53.1751 12.0522 52.7145 10.9976C53.4501 11.8811 53.845 12.9182 53.9288 14.0691C53.9383 14.1959 54.0127 15.725 54.0233 15.725C54.1329 15.7246 54.2308 15.7265 54.3404 15.7197C55.1681 15.6658 55.9883 15.7826 56.7849 16.033C57.2913 16.1923 57.9256 16.4033 58.3254 16.7678C57.7162 16.7352 57.1066 16.7029 56.4974 16.6707C59.9907 17.8926 60.9042 22.4337 60.2237 25.6437C60.0329 26.5443 59.7108 27.3872 59.6406 28.3151C59.5469 29.5476 59.7271 29.793 59.7639 31.0247C59.7684 31.1677 57.9939 31.7375 57.8831 31.7375V28.0666C57.8831 22.2205 53.2058 17.4814 47.4363 17.4814H37.0734C33.896 17.4814 30.84 18.9847 28.8708 21.5111C27.5837 23.1628 26.9073 25.1767 26.6884 27.2537C26.5894 28.1918 26.6369 29.1367 26.7025 30.0752C26.7321 30.5001 26.7859 30.9261 26.8163 31.3483C26.844 31.7326 26.668 32.1666 26.6228 32.555C26.542 33.2519 26.517 33.9514 26.4855 34.6516C26.4605 35.2021 25.9995 35.424 25.5978 35.7392C25.4632 35.8451 24.7356 36.287 24.7458 36.4831C24.7272 35.4858 24.7022 34.5029 24.6589 33.5216Z" fill="#661815"/>
<path d="M25.4457 39.3604H26.6282V31.0247H24.7458V38.6606C24.7458 39.0471 25.0592 39.3604 25.4457 39.3604Z" fill="#661815"/>
<path d="M59.0644 39.3604H57.882V31.0247H59.7643V38.6606C59.7643 39.0471 59.4509 39.3604 59.0644 39.3604Z" fill="#661815"/>
<path d="M51.1448 23.8342C50.1365 25.8842 48.5489 27.6258 46.6807 28.9406C44.812 30.255 42.668 31.1526 40.4514 31.7056C41.5827 31.0968 42.5375 30.164 43.1725 29.0472C42.0864 29.7915 40.9154 30.23 39.6176 30.4033C37.425 30.6962 35.207 30.8434 32.9985 30.7133C31.3707 30.6177 29.5673 30.6237 28.356 31.9014C27.2032 33.1172 26.7021 34.9972 26.6247 36.6292C26.6497 36.0966 26.0325 35.3519 25.8611 34.8466C25.6054 34.0944 25.4969 33.2207 25.3797 32.4359C25.1179 30.6829 25.0383 28.9015 25.1456 27.1319C25.2044 26.1623 25.4514 25.4002 25.7587 24.5011C26.0231 23.7265 25.9999 22.8646 26.2639 22.0612C26.7491 20.5832 27.6448 19.2794 28.7957 18.2529C32.2986 15.1298 37.5051 14.5676 41.9681 14.5676C59.3208 14.5676 59.4373 25.88 59.4373 25.88C59.2396 27.1911 59.042 28.5021 58.8444 29.8135C58.8444 30.3313 58.6429 30.8889 58.5716 31.4029C58.4927 31.9716 58.4954 32.5117 58.5678 33.0804C58.6149 33.4484 58.7313 33.8326 58.646 34.201C58.646 34.4866 58.5257 34.7977 58.3789 35.0864C58.2746 35.292 58.1566 35.4866 58.0591 35.6527C58.1479 35.5014 57.8311 34.7427 57.7807 34.5651C57.6783 34.2059 57.5633 33.8497 57.4689 33.4882C57.2071 32.4848 56.8676 31.5311 56.2781 30.6715C55.2429 29.1625 53.3196 28.6257 52.1554 27.2328C51.3716 26.2947 50.9028 25.0326 51.1448 23.8342Z" fill="#661815"/>
<path d="M44.0871 42.49L43.4486 43.2757C42.7871 44.0893 41.7139 44.0893 41.0523 43.2757L40.4139 42.49C40.2291 42.2632 40.36 41.8751 40.621 41.8751H43.8799C44.1409 41.8751 44.2718 42.2632 44.0871 42.49Z" fill="#F46D82"/>
<path d="M50.5292 36.6292C50.5292 38.0081 49.7466 39.126 48.7812 39.126C47.8161 39.126 47.0335 38.0081 47.0335 36.6292C47.0335 35.2502 47.8161 34.1327 48.7812 34.1327C49.7466 34.1327 50.5292 35.2502 50.5292 36.6292Z" fill="#661815"/>
<path d="M48.7815 38.3632C48.316 38.3632 47.796 37.6215 47.796 36.6295C47.796 35.6368 48.316 34.8956 48.7815 34.8956C49.2466 34.8956 49.7663 35.6368 49.7663 36.6295C49.7663 37.6215 49.2466 38.3632 48.7815 38.3632Z" fill="#3F0F0E"/>
<path d="M33.9787 36.6292C33.9787 38.0081 34.7613 39.126 35.7267 39.126C36.6918 39.126 37.4744 38.0081 37.4744 36.6292C37.4744 35.2502 36.6918 34.1327 35.7267 34.1327C34.7613 34.1327 33.9787 35.2502 33.9787 36.6292Z" fill="#661815"/>
<path d="M35.7267 38.3632C35.2613 38.3632 34.7416 37.6215 34.7416 36.6295C34.7416 35.6368 35.2613 34.8956 35.7267 34.8956C36.1918 34.8956 36.7115 35.6368 36.7115 36.6295C36.7115 37.6215 36.1918 38.3632 35.7267 38.3632Z" fill="#3F0F0E"/>
<path d="M37.0768 31.0335C36.0317 30.9098 34.9544 31.0001 33.9571 31.28C33.4548 31.4208 32.9678 31.6142 32.4875 31.8164C32.0626 31.9958 31.156 32.5121 31.156 33.0944C31.156 33.4017 31.9284 32.8683 32.1158 32.7902C32.9253 32.4503 33.7758 32.1825 34.6524 32.093C35.5784 31.9981 36.408 32.1628 37.2714 32.4879C37.7672 32.6749 38.2376 33.0053 38.7528 33.1271C39.0426 33.1972 39.4333 33.1271 39.6416 32.9006C39.7823 32.7477 39.7819 32.5489 39.763 32.3513C39.7391 32.1002 39.6268 31.8619 39.4785 31.6601C39.4166 31.5763 39.3487 31.497 39.2789 31.4196C39.2732 31.5122 39.2793 31.6059 39.2971 31.6969C39.2797 31.6066 39.1037 31.5797 39.0373 31.5509C38.4178 31.2842 37.7543 31.1139 37.0768 31.0335Z" fill="#661815"/>
<path d="M47.1682 31.0335C48.2133 30.9098 49.291 31.0001 50.2883 31.28C50.7902 31.4208 51.2776 31.6142 51.7575 31.8164C52.1827 31.9958 53.0894 32.5121 53.0894 33.0944C53.0894 33.4017 52.3166 32.8683 52.1296 32.7902C51.3197 32.4503 50.4692 32.1825 49.5926 32.093C48.6666 31.9981 47.8373 32.1628 46.9739 32.4879C46.4781 32.6749 46.0074 33.0053 45.4926 33.1271C45.2028 33.1972 44.8117 33.1271 44.6038 32.9006C44.4631 32.7477 44.4631 32.5489 44.482 32.3513C44.5063 32.1002 44.6186 31.8619 44.7669 31.6601C44.8284 31.5763 44.8966 31.497 44.9664 31.4196C44.9718 31.5122 44.9657 31.6059 44.9482 31.6969C44.9657 31.6066 45.1417 31.5797 45.2081 31.5509C45.8272 31.2842 46.491 31.1139 47.1682 31.0335Z" fill="#661815"/>
<path d="M41.8793 48.511C38.8472 48.511 36.7976 47.1196 36.7661 47.098C36.5935 46.9773 36.551 46.7402 36.6713 46.5676C36.7908 46.395 37.0279 46.3514 37.2016 46.4717C37.3875 46.6003 41.8088 49.577 47.3123 46.0707C47.4891 45.9576 47.7246 46.0096 47.8388 46.1875C47.9515 46.3651 47.8995 46.601 47.722 46.7141C45.5874 48.074 43.5792 48.511 41.8793 48.511Z" fill="#F3618E"/>
<path d="M31.9913 59.0993L42.2507 71.1181C42.2507 71.1181 35.3326 72.2523 33.113 79.6989C33.113 79.6989 31.2311 65.7894 26.3683 60.394L28.144 55.2831C28.243 54.9978 28.4573 54.7672 28.7346 54.6477L31.9913 53.243V59.0993Z" fill="#FDFDEC"/>
<path d="M31.9913 59.0993L29.4911 56.1013C29.2733 55.8396 29.3621 55.4428 29.6709 55.299L31.9913 54.2201V59.0993Z" fill="#A47FA8"/>
<path d="M52.5116 59.0993L42.2522 71.1181C42.2522 71.1181 49.1703 72.2523 51.3899 79.6989C51.3899 79.6989 53.5153 63.057 58.1346 60.394L56.3589 55.2831C56.2599 54.9978 56.0455 54.7672 55.7682 54.6477L52.5116 53.243V59.0993Z" fill="#FDFDEC"/>
<path d="M52.5116 59.0993V54.2201L54.8321 55.299C55.1408 55.4428 55.2296 55.8396 55.0119 56.1013L52.5116 59.0993Z" fill="#A47FA8"/>
</svg>
