<svg width="85" height="86" viewBox="0 0 85 86" fill="none" xmlns="http://www.w3.org/2000/svg">
<path d="M84.4996 42.7474C84.4996 52.2316 81.3765 60.9837 76.1102 68.0311C75.6334 68.668 75.1376 69.2931 74.6228 69.8997C74.3368 70.2468 74.0432 70.586 73.742 70.9216C73.4749 71.219 73.2041 71.5127 72.9294 71.8026C65.23 79.9328 54.335 85.0012 42.2538 85.0012C30.176 85.0012 19.2773 79.9328 11.5778 71.8062L11.574 71.8026L11.5509 71.7797C10.9712 71.1694 10.4106 70.5442 9.86927 69.8997C9.3583 69.2931 8.8663 68.668 8.38947 68.0311C3.1231 60.9837 0 52.2316 0 42.7474C0 19.4161 18.915 0.50116 42.2538 0.50116C65.5847 0.50116 84.4996 19.4161 84.4996 42.7474Z" fill="#FABEC3"/>
<path d="M30.7985 44.9487C30.4476 44.5094 29.865 44.0956 29.3047 43.9958C28.4834 43.8494 28.351 44.3892 28.2775 45.0739C27.985 47.7922 29.508 50.1855 31.132 52.2248C31.2647 52.3913 31.4024 52.5624 31.5959 52.6732C31.2629 52.8556 30.989 53.1197 30.8122 53.4292C31.2029 53.2756 31.6547 53.2399 32.078 53.3287C31.6778 53.7414 31.5902 54.3703 31.66 54.903C31.7321 55.4545 31.979 55.9834 32.2939 56.47C32.2063 56.0403 32.2184 55.5922 32.3261 55.1673C32.3792 54.958 32.4551 54.7554 32.5511 54.5623C32.5864 54.4914 32.6125 54.4045 32.6535 54.3381C32.6979 54.2664 32.7939 54.2262 32.8329 54.1549C32.3534 55.0266 32.4342 56.1763 33.0313 56.9722C33.122 57.0928 33.2233 57.2059 33.3405 57.3007C33.4797 57.4134 33.6409 57.4995 33.812 57.5526C33.6208 57.4441 33.4956 57.2484 33.4004 57.0504C33.3534 56.9529 33.312 56.8532 33.2813 56.7496C33.1531 56.3178 33.2449 55.8361 33.4937 55.4643C33.6193 55.2765 33.7843 55.1578 33.9508 55.0125C34.1636 54.8278 34.3723 54.6143 34.5494 54.3954C35.1351 53.672 35.2698 52.7115 35.101 51.8178C34.9322 50.924 34.4861 50.0834 33.9899 49.283C33.0533 47.7717 31.9248 46.3579 30.7985 44.9487Z" fill="#511D5A"/>
<path d="M53.7925 44.9487C54.1434 44.5094 54.7265 44.0956 55.2868 43.9958C56.1077 43.8494 56.24 44.3892 56.3136 45.0739C56.6065 47.7922 55.083 50.1855 53.4595 52.2248C53.3267 52.3913 53.1886 52.5624 52.9952 52.6732C53.3282 52.8556 53.6021 53.1197 53.7789 53.4292C53.3882 53.2756 52.9364 53.2399 52.513 53.3287C52.9132 53.7414 53.0012 54.3703 52.9314 54.903C52.859 55.4545 52.612 55.9834 52.2976 56.47C52.3852 56.0403 52.3727 55.5922 52.2649 55.1673C52.2122 54.958 52.136 54.7554 52.04 54.5623C52.0047 54.4914 51.9785 54.4045 51.9376 54.3381C51.8932 54.2664 51.7972 54.2262 51.7581 54.1549C52.2376 55.0266 52.1568 56.1763 51.5598 56.9722C51.4691 57.0928 51.3678 57.2059 51.2506 57.3007C51.1114 57.4134 50.9502 57.4995 50.7791 57.5526C50.9706 57.4441 51.0954 57.2484 51.1906 57.0504C51.2377 56.9529 51.2794 56.8532 51.3098 56.7496C51.438 56.3178 51.3462 55.8361 51.0977 55.4643C50.9718 55.2765 50.8068 55.1578 50.6402 55.0125C50.4274 54.8278 50.2188 54.6143 50.0416 54.3954C49.4559 53.672 49.3213 52.7115 49.4901 51.8178C49.6589 50.924 50.105 50.0834 50.6012 49.283C51.5378 47.7717 52.6667 46.3579 53.7925 44.9487Z" fill="#511D5A"/>
<path d="M59.0597 61.2811L56.8329 82.4102C56.7305 82.452 56.6277 82.4861 56.5257 82.524C56.1535 82.6607 55.778 82.7934 55.3987 82.9148C55.1748 82.9869 54.9514 83.0551 54.7272 83.1234V83.1273C50.7825 84.3449 46.5908 85.0012 42.2511 85.0012C37.9077 85.0012 33.7194 84.3449 29.7747 83.1273C29.0653 82.9111 28.3632 82.6721 27.6694 82.4141L25.4426 61.2811C25.8941 61.0914 26.3337 60.9284 26.7548 60.7993L26.8121 60.7804L26.8348 60.7766C27.1076 60.7084 27.3811 60.64 27.6614 60.5717L27.6766 60.568L27.6959 60.5642C28.0294 60.4808 28.367 60.401 28.7087 60.3214H28.7125L28.7273 60.3176C28.9398 60.2645 29.1564 60.2152 29.3726 60.1659C33.716 59.1757 38.4767 58.3412 42.2394 58.3336H42.2584C46.0218 58.3412 50.7825 59.1757 55.1183 60.1659C55.3383 60.2189 55.558 60.2683 55.7742 60.3176L55.797 60.3214L55.858 60.3404C56.1535 60.4049 56.4498 60.4808 56.7415 60.549L56.7609 60.5528C57.0791 60.6325 57.3982 60.7084 57.7092 60.7879L57.7392 60.7956L57.7657 60.8032C58.1834 60.9321 58.6154 61.0914 59.0597 61.2811Z" fill="#FDFDEC"/>
<path d="M70.705 73.9814V73.9852L70.694 73.9928C68.9373 75.5935 67.0448 77.0465 65.0377 78.3323C64.2073 78.8673 63.3572 79.3718 62.4885 79.846C61.5326 80.3657 60.5505 80.8549 59.5566 81.2989C58.6648 81.7009 57.7585 82.0727 56.8329 82.4102V82.4141C56.7305 82.452 56.6277 82.49 56.5257 82.524C56.1535 82.6607 55.778 82.7934 55.3987 82.9148C55.1749 82.9869 54.9514 83.059 54.7272 83.1273V83.1234L55.767 60.3555L55.7742 60.3176C55.8049 60.09 56.0322 59.9458 56.2563 60.0217L58.8089 60.8638C58.9758 60.917 59.0824 61.0801 59.0631 61.2545L59.0597 61.281C60.277 61.7895 61.5629 62.4874 62.7161 63.1741C62.9096 63.2879 63.0992 63.4092 63.2851 63.5344C65.417 64.9341 67.1434 66.8877 68.2886 69.1713L70.705 73.9814Z" fill="#511D5A"/>
<path d="M29.7747 83.1273C29.0653 82.9111 28.3632 82.6721 27.6694 82.4141C26.9862 82.1675 26.3113 81.8981 25.6433 81.6136C25.583 81.5871 25.5257 81.5606 25.4654 81.5341C25.2867 81.4582 25.116 81.3823 24.9419 81.2989C24.3995 81.056 23.8642 80.8057 23.3407 80.5402C22.0058 79.8687 20.7081 79.1328 19.4563 78.3287C17.45 77.0389 15.5605 75.5821 13.8042 73.9852L16.2243 69.1713C17.1844 67.2671 18.5387 65.598 20.2002 64.2778C20.5112 64.0313 20.8333 63.7924 21.1713 63.5724C21.3758 63.432 21.5882 63.2992 21.8044 63.1702C21.9072 63.1057 22.0168 63.0413 22.1268 62.9805C23.1894 62.3546 24.3464 61.744 25.4427 61.281L25.4389 61.2545C25.4199 61.0801 25.5257 60.917 25.6926 60.8638L28.2456 60.0217C28.4698 59.9458 28.697 60.09 28.7273 60.3176L28.7353 60.3555L29.7747 83.1273Z" fill="#511D5A"/>
<path d="M52.8863 60.2619C52.8863 66.8339 48.1059 72.1821 42.2314 72.1821C36.357 72.1821 31.5762 66.8339 31.5762 60.2619V60.2508C31.5766 59.612 31.9893 59.0631 32.5473 58.9274C35.8646 58.1182 39.3879 57.4767 42.225 57.4737H42.2405C45.0776 57.4767 48.6005 58.1182 51.9156 58.9269C52.4732 59.0631 52.8859 59.612 52.8863 60.2508V60.2619Z" fill="#822C99"/>
<path d="M28.7122 60.3225C28.4618 60.4061 28.1242 60.4857 27.6993 60.5654C28.0332 60.4818 28.3708 60.4022 28.7122 60.3225Z" fill="#B0E5F9"/>
<path d="M56.7453 60.5501C56.3812 60.4818 56.0891 60.4136 55.8577 60.3415C56.1574 60.4061 56.4532 60.4818 56.7453 60.5501Z" fill="#B0E5F9"/>
<path d="M50.5283 59.8624V46.0897H33.9709V59.8643L33.9706 59.8889C33.9706 65.5547 37.6775 70.1478 42.2496 70.1478C46.8222 70.1478 50.5291 65.5547 50.5291 59.8889L50.5283 59.8624Z" fill="#F6859D"/>
<path d="M49.3129 47.5604H33.9709V52.6834C33.9709 52.9653 34.4425 53.5157 34.5961 53.7554C34.8002 54.0748 35.0175 54.3859 35.252 54.6833C35.648 55.1859 36.093 55.6514 36.5971 56.0462C37.8277 57.011 39.3519 57.5385 40.8886 57.7491C42.5368 57.9749 44.0959 57.6433 45.7362 57.6315C45.8124 57.6308 45.8886 57.6311 45.9645 57.633C47.8267 57.677 49.3129 59.449 49.3129 61.61C49.3129 64.3313 48.3373 66.7883 46.7706 68.5349C49.033 66.8206 50.5283 63.8527 50.5283 60.4849V57.5993V47.5604H49.3129Z" fill="#F3618E"/>
<path d="M32.8781 39.861C32.8781 43.2925 30.3934 46.0738 27.328 46.0738C24.2629 46.0738 21.7778 43.2925 21.7778 39.861C21.7778 36.4299 24.2629 33.6482 27.328 33.6482C30.3934 33.6482 32.8781 36.4299 32.8781 39.861Z" fill="#F6859D"/>
<path d="M27.328 44.1673C25.2666 44.1673 23.59 42.2353 23.59 39.861C23.59 37.4867 25.2666 35.5551 27.328 35.5551C29.3889 35.5551 31.0656 37.4867 31.0656 39.861C31.0656 42.2353 29.3889 44.1673 27.328 44.1673Z" fill="#F3618E"/>
<path d="M62.7218 39.861C62.7218 43.2925 60.2367 46.0738 57.1717 46.0738C54.1062 46.0738 51.6216 43.2925 51.6216 39.861C51.6216 36.4299 54.1062 33.6482 57.1717 33.6482C60.2367 33.6482 62.7218 36.4299 62.7218 39.861Z" fill="#F6859D"/>
<path d="M57.1717 44.1673C55.1104 44.1673 53.4337 42.2353 53.4337 39.861C53.4337 37.4867 55.1104 35.5551 57.1717 35.5551C59.2326 35.5551 60.9093 37.4867 60.9093 39.861C60.9093 42.2353 59.2326 44.1673 57.1717 44.1673Z" fill="#F3618E"/>
<path d="M48.4283 15.1069C53.2683 15.1069 57.1918 19.2424 57.1918 24.3434V37.9006H57.1702C56.993 45.5886 54.6013 48.8604 51.001 52.243C49.6274 53.535 47.0593 55.5671 45.0579 56.3076C43.2344 56.9821 41.2516 56.9802 39.4289 56.3042C37.4165 55.5574 34.8298 53.5138 33.4516 52.2089C29.8733 48.8183 27.496 45.5617 27.3185 37.9006C27.3113 37.5914 27.3079 37.275 27.3079 36.9545V24.3434C27.3079 19.2424 31.2314 15.1069 36.0714 15.1069H48.4283Z" fill="#F89DAD"/>
<path d="M56.1638 44.226C56.0314 43.7208 55.9184 43.2128 55.8497 42.6985C55.638 41.1181 55.6126 39.5128 55.7735 37.9264C55.9309 36.3711 56.468 34.8541 55.7556 33.3481C55.3884 32.572 54.7143 31.9082 54.6347 31.0535C54.5819 30.4898 54.808 29.9276 55.1475 29.4747C55.487 29.0218 55.9343 28.6625 56.3827 28.317C56.8398 27.9653 57.2991 27.5799 57.7912 27.2776C58.0741 27.1034 58.3901 27.0124 58.6219 26.7696C59.0608 26.3095 59.8612 24.6017 59.6169 23.9549C60.228 25.5743 60.4097 27.3113 60.4606 29.0301C60.4867 29.9128 60.4792 30.7959 60.4784 31.6787C60.4773 32.4445 60.467 33.2533 60.3362 34.0101C60.2914 34.2676 60.2227 34.5214 60.1317 34.7669C59.5388 34.4095 58.6716 34.1459 58.1929 34.834C57.8579 35.3158 57.9031 35.9959 57.8105 36.5509C57.6076 37.7739 57.4717 39.0082 57.408 40.246C57.3048 42.2649 57.2362 44.4836 58.216 46.3208C58.642 47.1193 58.9595 48.1298 59.0115 49.0346C59.0851 50.3133 58.4671 51.5484 57.5916 52.4501C57.0689 52.9884 56.5003 53.4819 55.8941 53.9238C55.6001 54.1382 55.2909 54.3461 55.0785 54.6412C54.956 54.8115 54.8695 55.0064 54.8126 55.2087C54.7322 55.4939 54.7113 55.8054 54.816 56.0826C54.9207 56.36 55.1684 56.594 55.4632 56.6256C55.7579 56.657 56.0743 56.443 56.1058 56.1483C56.0652 56.5466 55.7913 56.9126 55.4207 57.064C55.05 57.2153 54.5983 57.146 54.2902 56.8899C53.8889 56.5561 53.7728 55.9912 53.7474 55.4696C53.7292 55.1036 53.7444 54.7303 53.8604 54.3829C54.0964 53.675 54.6965 53.1955 55.242 52.727C55.7818 52.2631 56.325 51.7768 56.7188 51.1782C57.1486 50.5246 57.2085 49.9328 57.2127 49.1537C57.2218 47.4641 56.5921 45.8599 56.1638 44.226Z" fill="#511D5A"/>
<path d="M28.2744 44.226C28.4068 43.7208 28.5198 43.2128 28.5889 42.6985C28.8002 41.1181 28.826 39.5128 28.6651 37.9264C28.5077 36.3711 27.9702 34.8541 28.6826 33.3481C29.0498 32.572 29.7242 31.9082 29.8039 31.0535C29.8563 30.4898 29.6302 29.9276 29.2907 29.4747C28.9511 29.0218 28.5043 28.6625 28.0555 28.317C27.5984 27.9653 27.139 27.5799 26.6474 27.2776C26.364 27.1034 26.0481 27.0124 25.8163 26.7696C25.3774 26.3095 24.5774 24.6017 24.8213 23.9549C24.2105 25.5743 24.0285 27.3113 23.978 29.0301C23.9518 29.9128 23.9594 30.7959 23.9602 31.6787C23.9609 32.4445 23.9712 33.2533 24.1024 34.0101C24.1472 34.2676 24.2155 34.5214 24.3065 34.7669C24.8994 34.4095 25.767 34.1459 26.2453 34.834C26.5807 35.3158 26.5355 35.9959 26.6277 36.5509C26.831 37.7739 26.9668 39.0082 27.0302 40.246C27.1334 42.2649 27.2024 44.4836 26.2226 46.3208C25.7966 47.1193 25.4791 48.1298 25.4267 49.0346C25.3531 50.3133 25.9711 51.5484 26.8466 52.4501C27.3693 52.9884 27.9379 53.4819 28.5445 53.9238C28.8381 54.1382 29.1473 54.3461 29.3597 54.6412C29.4826 54.8115 29.5691 55.0064 29.626 55.2087C29.7064 55.4939 29.7273 55.8054 29.6226 56.0826C29.5179 56.36 29.2702 56.594 28.9754 56.6256C28.6807 56.657 28.3639 56.443 28.3324 56.1483C28.3734 56.5466 28.6473 56.9126 29.0179 57.064C29.3885 57.2153 29.8399 57.146 30.148 56.8899C30.5497 56.5561 30.6654 55.9912 30.6912 55.4696C30.709 55.1036 30.6942 54.7303 30.5781 54.3829C30.3418 53.675 29.7421 53.1955 29.1966 52.727C28.6564 52.2631 28.1136 51.7768 27.7194 51.1782C27.2896 50.5246 27.2301 49.9328 27.2259 49.1537C27.2164 47.4641 27.8465 45.8599 28.2744 44.226Z" fill="#511D5A"/>
<path d="M44.0864 42.9909L43.448 43.7762C42.7864 44.5898 41.7133 44.5898 41.0517 43.7762L40.4133 42.9909C40.2285 42.7637 40.3594 42.3756 40.6204 42.3756H43.8793C44.1403 42.3756 44.2711 42.7637 44.0864 42.9909Z" fill="#F46D82"/>
<path d="M50.5283 37.1298C50.5283 38.5087 49.7457 39.6266 48.7803 39.6266C47.8153 39.6266 47.0327 38.5087 47.0327 37.1298C47.0327 35.7512 47.8153 34.6333 48.7803 34.6333C49.7457 34.6333 50.5283 35.7512 50.5283 37.1298Z" fill="#661815"/>
<path d="M48.7807 38.8637C48.3153 38.8637 47.7952 38.1221 47.7952 37.1301C47.7952 36.1378 48.3153 35.3962 48.7807 35.3962C49.2458 35.3962 49.7655 36.1378 49.7655 37.1301C49.7655 38.1221 49.2458 38.8637 48.7807 38.8637Z" fill="#3F0F0E"/>
<path d="M33.9781 37.1298C33.9781 38.5087 34.7607 39.6266 35.7261 39.6266C36.6912 39.6266 37.4738 38.5087 37.4738 37.1298C37.4738 35.7512 36.6912 34.6333 35.7261 34.6333C34.7607 34.6333 33.9781 35.7512 33.9781 37.1298Z" fill="#661815"/>
<path d="M35.7261 38.8637C35.2607 38.8637 34.741 38.1221 34.741 37.1301C34.741 36.1378 35.2607 35.3962 35.7261 35.3962C36.1912 35.3962 36.7109 36.1378 36.7109 37.1301C36.7109 38.1221 36.1912 38.8637 35.7261 38.8637Z" fill="#3F0F0E"/>
<path d="M37.0762 31.5345C36.0311 31.4105 34.9538 31.5011 33.9565 31.7807C33.4543 31.9214 32.9672 32.1149 32.487 32.3175C32.0621 32.4965 31.1555 33.0128 31.1555 33.5955C31.1555 33.9023 31.9278 33.3694 32.1152 33.2908C32.9247 32.951 33.7752 32.6831 34.6519 32.5936C35.5778 32.4992 36.4074 32.6634 37.2708 32.9889C37.7666 33.1755 38.237 33.5063 38.7521 33.6277C39.0419 33.6979 39.4327 33.6277 39.6409 33.4012C39.7817 33.2484 39.7813 33.0496 39.7623 32.8523C39.7384 32.6008 39.6261 32.3626 39.4778 32.1612C39.416 32.077 39.3481 31.9981 39.2783 31.9203C39.2726 32.0132 39.2787 32.1066 39.2965 32.1976C39.279 32.1077 39.103 32.0804 39.0366 32.0519C38.4172 31.7849 37.7537 31.6145 37.0762 31.5345Z" fill="#661815"/>
<path d="M47.1674 31.5345C48.2125 31.4105 49.2902 31.5011 50.2875 31.7807C50.7893 31.9214 51.2768 32.1149 51.7566 32.3175C52.1819 32.4965 53.0885 33.0128 53.0885 33.5955C53.0885 33.9023 52.3158 33.3694 52.1288 33.2908C51.3189 32.951 50.4684 32.6831 49.5917 32.5936C48.6658 32.4992 47.8365 32.6634 46.9732 32.9889C46.4774 33.1755 46.0066 33.5063 45.4918 33.6277C45.202 33.6979 44.8109 33.6277 44.6031 33.4012C44.4623 33.2484 44.4623 33.0496 44.4813 32.8523C44.5056 32.6008 44.6179 32.3626 44.7662 32.1612C44.8276 32.077 44.8959 31.9981 44.9657 31.9203C44.971 32.0132 44.965 32.1066 44.9475 32.1976C44.965 32.1077 45.141 32.0804 45.2073 32.0519C45.8264 31.7849 46.4903 31.6145 47.1674 31.5345Z" fill="#661815"/>
<path d="M41.8786 49.0118C38.8466 49.0118 36.797 47.6204 36.7655 47.5984C36.5929 47.4781 36.5505 47.2407 36.6707 47.0681C36.7902 46.8955 37.0273 46.8518 37.201 46.9721C37.3869 47.1007 41.8081 50.0774 47.3115 46.5711C47.4883 46.4585 47.7239 46.5101 47.8381 46.688C47.9507 46.8659 47.8988 47.1014 47.7212 47.2149C45.5867 48.5744 43.5785 49.0118 41.8786 49.0118Z" fill="#F3618E"/>
<path d="M34.4326 10.5897C34.0381 9.66599 33.9652 8.6194 34.1598 7.63388C34.3544 6.64835 34.8085 5.72352 35.4132 4.9216C35.0213 6.02206 34.9235 7.1597 35.2762 8.29354C35.2212 8.11715 35.3377 7.77309 35.3779 7.5967C35.5353 6.90289 36.0205 6.20642 36.4533 5.65638C37.0345 4.9178 37.7583 4.29114 38.5697 3.81696C40.4019 2.74647 42.6206 2.49573 44.6277 3.19789C45.18 3.39097 45.7122 3.64133 46.2149 3.94025C46.6234 4.1834 47.0119 4.45995 47.3715 4.77101C48.1798 5.46975 48.7894 6.64759 49.0997 7.66233C49.2238 8.06898 49.3053 8.48891 49.3357 8.91339C49.3509 9.12885 49.3528 9.34546 49.3406 9.5613C49.33 9.75325 49.3493 10.0499 49.2427 10.2138C49.6953 9.16565 49.8861 7.94759 49.4703 6.88506C49.8394 7.18095 50.0238 7.64791 50.1566 8.10198C50.4528 9.11823 50.5632 10.2312 50.1903 11.222C51.1834 11.3218 52.1143 11.917 52.6211 12.7766C52.0829 12.4591 51.5192 12.1803 50.9244 11.9887C50.5678 11.8734 50.1585 11.7706 49.7822 11.8423C49.3854 11.9181 49.1077 12.2011 48.7257 12.3107C48.2299 12.4534 47.722 12.563 47.2159 12.6616C46.1769 12.8638 45.1235 12.9894 44.0663 13.0383C41.3548 13.1643 38.6099 12.7747 36.0288 11.9401C35.1833 11.667 34.7926 11.4326 34.4326 10.5897Z" fill="#511D5A"/>
<path d="M59.9773 25.3672C59.9761 25.9931 59.9477 26.6179 60.1104 27.2616C60.2383 27.7658 60.4344 28.2809 60.3604 28.809C60.2933 28.0366 59.9477 27.9008 59.2979 27.6721C58.4315 27.3671 57.6656 26.781 56.9703 26.1915C56.0576 25.4177 55.3239 24.541 54.5929 23.6037C52.9049 21.4414 50.3671 20.0758 47.6662 19.8558C47.4121 19.8368 47.1579 19.8255 46.9 19.8255H37.1775C31.7643 19.8255 27.3754 24.2713 27.3754 29.7565C27.3754 30.2675 27.3056 30.7789 27.3029 31.2978C27.3003 31.7678 27.1231 32.635 27.2938 33.0659C26.9467 32.2135 26.5056 31.4029 26.0655 30.5945C25.6391 29.8104 25.0785 29.0058 24.7944 28.1622C24.5186 27.3436 24.4951 26.4169 24.5152 25.5618C24.5356 24.6833 24.6567 23.8078 24.871 22.9558C26.2723 17.378 31.5117 12.3828 36.9893 10.7733C37.3201 10.6762 37.6528 10.5878 37.99 10.5176L38.0086 10.5138C38.2578 10.4619 38.5086 10.4175 38.7605 10.3807C41.7512 9.94519 44.8508 10.0442 47.7592 10.9061C50.5913 11.7455 53.2653 13.5322 55.4358 15.5124C57.2153 17.1356 58.4626 19.2644 59.2224 21.537C59.5346 22.4706 59.81 23.4569 59.9325 24.4359C59.972 24.7481 59.978 25.0581 59.9773 25.3672Z" fill="#511D5A"/>
<path d="M37.0318 41.4914C36.7242 42.1203 35.3882 42.1184 33.9747 42.1397C32.5617 42.1177 31.2253 42.12 30.9177 41.4914C30.5967 40.8837 31.9165 39.6273 33.9747 39.6266C36.033 39.6269 37.3524 40.8826 37.0318 41.4914Z" fill="#F3618E"/>
<path d="M53.582 41.4914C53.2744 42.12 51.938 42.1181 50.5249 42.1397C49.1119 42.1184 47.7755 42.12 47.4678 41.4914C47.1469 40.8833 48.4662 39.6273 50.5249 39.6266C52.5832 39.6269 53.9033 40.8829 53.582 41.4914Z" fill="#F3618E"/>
<path d="M58.0085 33.2677C57.6656 36.0581 57.0222 38.7932 56.4923 41.5506C56.1953 40.3029 55.9199 39.05 55.55 37.8217C54.9222 35.7368 54.3062 33.4699 52.356 32.248C50.7453 31.2443 48.772 31.044 46.8757 30.9765C44.1353 30.879 41.2827 30.9829 38.7882 29.8445C36.2887 28.7039 34.4007 26.3095 33.8742 23.6131C33.8882 25.1662 33.9926 26.63 33.4179 28.1239C32.7855 29.7675 31.2959 31.0637 30.0217 32.2397C29.2728 32.9305 28.5157 33.4847 28.1367 34.4664C27.8245 35.2759 27.6485 36.2341 27.6485 37.1032C27.6485 36.6116 27.0981 35.9386 26.9433 35.4846C26.7081 34.79 26.6068 33.9835 26.4999 33.2624C25.8652 28.9808 26.1774 23.2645 29.6518 20.1744C32.0504 18.0376 35.244 17.1227 38.3838 16.8264C41.9598 16.4892 45.6656 16.7665 49.1942 17.3958C51.3902 17.7873 53.3795 18.8562 54.9454 20.465C58.2858 23.9944 58.5783 28.6329 58.0085 33.2677Z" fill="#511D5A"/>
<path d="M29.7747 83.1273C29.0653 82.9111 28.3632 82.6721 27.6694 82.4141L25.4426 61.281L25.4388 61.2545C25.4199 61.0801 25.5257 60.917 25.6926 60.8638L28.2456 60.0217C28.4698 59.9458 28.697 60.09 28.7273 60.3176L28.7353 60.3555L29.7747 83.1273Z" fill="#822C99"/>
<path d="M59.0631 61.2545L59.0597 61.281L56.8329 82.4102V82.4141C56.7305 82.452 56.6277 82.49 56.5257 82.524C56.1535 82.6607 55.778 82.7934 55.3987 82.9148C55.1749 82.9869 54.9514 83.059 54.7272 83.1273V83.1234L55.767 60.3555L55.7742 60.3176C55.8049 60.09 56.0322 59.9458 56.2563 60.0217L58.8089 60.8638C58.9758 60.917 59.0824 61.0801 59.0631 61.2545Z" fill="#822C99"/>
</svg>
